<?xml version="1.0" encoding="utf-8"?>
<!-- Generator: Adobe Illustrator 28.4.1, SVG Export Plug-In . SVG Version: 6.00 Build 0)  -->
<svg version="1.1" id="Layer_1" xmlns="http://www.w3.org/2000/svg" xmlns:xlink="http://www.w3.org/1999/xlink" x="0px" y="0px"
	 viewBox="0 0 200 50" style="enable-background:new 0 0 200 50;" xml:space="preserve">
<style type="text/css">
	.st0{fill:#FFFFFF;}
	.st1{fill:#00EAFF;}
</style>
<g>
	<g>
		<g>
			<path class="st0" d="M18.1,20.6c-0.1-0.3-0.3-0.7-0.4-1c-0.4-0.8-0.8-1.7-1.2-2.5c-0.1-0.2-0.2-0.5-0.2-0.7
				c0-0.3-0.2-0.5-0.4-0.6c-0.3-0.1-0.7-0.2-1-0.3c-0.2,0-0.4-0.1-0.6-0.1c-0.2,0-0.4-0.1-0.6-0.2c-0.2-0.1-0.3-0.2-0.5-0.4
				c-0.1,0-0.1-0.1-0.1-0.2c-0.1-0.2-0.1-0.3,0-0.5c0-0.2,0.1-0.4,0.1-0.6c0.1-0.3,0-0.7-0.1-1c-0.3-0.8-1-1.2-1.9-0.9
				c-0.4,0.1-0.8,0.4-1,0.8c-0.2,0.4-0.3,0.8-0.2,1.2c0,0.1,0,0.2,0,0.3c0,0.1-0.1,0.3-0.1,0.4c0,0.1,0,0.2,0.1,0.3
				c0,0,0.1,0.1,0.1,0.1c0,0,0,0.1,0,0.1c0,0.1,0,0.2,0.1,0.3c0.1,0.1,0,0.1,0.1,0.2c0.1,0.1,0,0.2,0.1,0.3c0.1,0.2,0.2,0.3,0.4,0.2
				c0,0,0,0,0.1,0c0.1,0,0.2,0,0.3,0c0,0-0.1,0.1-0.1,0.1c-0.1,0.1-0.2,0.1-0.3,0.2c-0.2,0.1-0.3,0.1-0.5,0.2
				c-0.3,0.1-0.6,0.3-0.9,0.4c-0.2,0.1-0.3,0.2-0.3,0.4c0,0.2-0.1,0.3-0.1,0.5c0,0.2-0.1,0.3-0.1,0.5c-0.1,0-0.1,0-0.2-0.1
				c-0.2,0-0.3-0.1-0.5-0.1l-0.1,0c0,0,0,0,0,0c0,0,0.1,0,0.1,0c0.2,0.1,0.4,0.3,0.5,0.5c0.2,0.2,0.4,0.4,0.6,0.7
				c0.3,0.4,0.4,0.8,0.4,1.3c0,0.2-0.1,0.3-0.1,0.5c0.1,0,0.2,0.1,0.3,0.2c0,0,0,0,0,0.1c0,0.2,0,0.4,0,0.5c0,0.2,0.1,0.4,0.1,0.7
				c0,0.2,0.1,0.4,0.1,0.6c0,0.1,0,0.2-0.1,0.3c-0.2,0.6-0.4,1.3-0.5,1.9c0,0.1-0.1,0.2-0.1,0.4c0.1,0.1,0.1,0.2,0.2,0.3
				c0.2,0.2,0.4,0.5,0.6,0.7c0.2,0.2,0.4,0.4,0.6,0.6c0.1,0.1,0.3,0.2,0.4,0.4c0.1,0.1,0.1,0.1,0.1,0.2c0,0.1-0.1,0.1-0.2,0.1
				c0,0-0.1,0-0.1,0c0.1,0.2,0.1,0.3,0.2,0.5c0,0,0,0,0,0c-0.1-0.1-0.2-0.3-0.4-0.4c0,0-0.1-0.1-0.1-0.1c-0.1-0.1-0.1,0-0.2,0
				C10,28,9.6,28.1,9.1,28.2c-0.1,0-0.2,0-0.3,0.1c-0.2,0-0.3,0-0.5-0.2c0,0-0.1-0.1-0.1-0.1c0-0.1-0.1-0.1-0.1,0
				c-0.2,0.1-0.4,0.3-0.6,0.4c-0.3,0.2-0.6,0.3-0.9,0.4c-0.3,0.1-0.6,0.1-0.9,0c-0.1-0.1-0.3-0.1-0.4-0.1c0,0-0.1,0-0.1,0
				c0,0.1,0,0.1,0.1,0.2c0.3,0.6,0.6,1.3,1,1.9c0.1,0.2,0.2,0.4,0.2,0.6c0,0.2,0,0.3-0.1,0.4c-0.6,0.6-1,1.2-1.2,2
				c-0.1,0.5-0.2,1.1-0.4,1.6c-0.2,0.6-0.5,1.1-0.9,1.6c-0.1,0.1-0.2,0.3-0.2,0.5c0,0.2,0,0.3,0.1,0.5c0.1,0.2,0.1,0.5,0.1,0.7
				c0,0.1,0,0.2,0.1,0.3C3.9,39,4,39,4,39c0.1,0,0.1-0.1,0.1-0.1c0-0.1,0-0.3,0-0.4c0-0.2,0-0.3,0-0.5c0,0,0,0,0,0
				c0.1,0.2,0.2,0.4,0.3,0.6c0.1,0.1,0.1,0.3,0.2,0.4c0.1,0.2,0.3,0.3,0.5,0.3c0.4,0,0.7,0,1.1,0c0.1,0,0.2,0,0.3-0.1
				c0.1,0,0.1-0.1,0.1-0.2c0,0,0-0.1-0.1-0.1c-0.1,0-0.1-0.1-0.2-0.1c-0.2-0.2-0.5-0.4-0.6-0.7c-0.3-0.5-0.4-1-0.3-1.6
				c0.1-0.4,0.3-0.8,0.6-1.2c0.2-0.3,0.5-0.7,0.7-1c0.3-0.4,0.5-0.8,0.8-1.2c0.1-0.1,0.2-0.2,0.3-0.4c0,0.1,0,0.2-0.1,0.3
				c-0.1,0.4-0.3,0.8-0.4,1.2C7.2,34.6,7,34.9,6.7,35c-0.1,0-0.1,0.1-0.2,0.1c-0.2,0.1-0.2,0.3-0.3,0.5c-0.1,0.2-0.1,0.3-0.2,0.5
				c-0.1,0.2-0.1,0.3-0.2,0.5c0,0.1,0,0.1,0.1,0.2c0.1,0,0.1,0,0.2,0c0,0,0.1-0.1,0.1-0.1c0.1-0.2,0.2-0.4,0.4-0.6
				c0,0,0-0.1,0.1-0.1c0.1,0.2,0.2,0.4,0.2,0.7c0,0.2,0,0.4,0.1,0.7c0,0.3,0.2,0.5,0.4,0.7c0.3,0.2,0.6,0.4,1,0.5c0.1,0,0.1,0,0.2,0
				c0.1,0,0.1,0,0.1-0.1c0-0.1,0-0.2-0.1-0.3c-0.1-0.2-0.2-0.3-0.2-0.4C8.1,37.5,8,37.3,8,37.1c0-0.4,0-0.8,0.1-1.3
				c0.1-0.3,0.2-0.6,0.3-0.9c0.2-0.3,0.4-0.7,0.7-0.9c0.3-0.3,0.6-0.7,0.9-1c0,0,0,0,0-0.1c0,0,0,0,0,0c0.1,0.3,0.1,0.5,0.2,0.8
				c0.1,0.6,0.3,1.2,0.4,1.8c0.1,0.4,0.1,0.7,0.2,1.1c0,0.1,0.1,0.1,0.1,0.1c0,0,0.1,0,0.1,0c0.1,0,0.2,0,0.4,0c0,0,0,0,0,0.1
				c-0.2,0.3-0.4,0.5-0.6,0.7c-0.1,0.1-0.2,0.2-0.3,0.2c-0.2,0.1-0.4,0.1-0.6,0.2C9.8,38,9.7,38,9.6,38.1c-0.1,0.1-0.1,0.2,0.1,0.3
				c0.1,0,0.2,0.1,0.3,0.1c0.3,0,0.5,0,0.8,0c0.4,0,0.8-0.1,1.2-0.3c0.2-0.1,0.4-0.2,0.6-0.3c0.1,0,0.1,0,0.2,0c0.1,0,0.1,0,0.2,0
				c0.2,0,0.4-0.1,0.6-0.2c0.1-0.1,0.2-0.1,0.2-0.2c0-0.2,0-0.3,0.1-0.5c0-0.3,0-0.5-0.2-0.7c-0.1-0.2-0.2-0.4-0.3-0.6
				c-0.2-0.5-0.4-1-0.5-1.6c-0.2-0.6-0.3-1.2-0.4-1.8c-0.1-0.6-0.3-1.1-0.6-1.6c0,0,0-0.1,0-0.1c0-0.1,0.1-0.3,0.1-0.4
				c0-0.3,0-0.5-0.1-0.8c-0.1-0.3-0.2-0.6-0.3-0.8c0.2-0.2,0.3-0.3,0.5-0.5c0,0,0,0,0,0c0,0.4,0.1,0.7,0.1,1.1c0,0.3,0.1,0.7,0.1,1
				c0.1,0.4,0.2,0.9,0.3,1.3c0.2,0.4,0.4,0.8,0.5,1.2c0.3,0.6,0.5,1.3,0.8,1.9c0.3,0.7,0.5,1.4,0.7,2c0.1,0.2,0.1,0.3,0.2,0.5
				c0.1,0,0.3,0,0.4,0c-0.1,0.2-0.1,0.3-0.2,0.5c0,0.1-0.1,0.2-0.1,0.3c-0.1,0.2-0.2,0.4-0.4,0.5c-0.1,0.1-0.2,0.2-0.3,0.3
				c0,0.1-0.1,0.1-0.1,0.2c-0.1,0.1,0,0.3,0.1,0.3c0.1,0,0.1,0,0.2,0c0.4,0,0.8,0,1.2-0.1c0.4-0.1,0.6-0.3,0.7-0.6
				c0-0.1,0.1-0.2,0.1-0.3c0,0,0,0,0,0c0.3,0,0.5-0.1,0.6-0.3c0-0.2,0-0.3,0-0.5c-0.1-0.2-0.2-0.4-0.3-0.6c-0.1-0.1-0.1-0.2-0.1-0.3
				c0-0.1,0-0.2-0.1-0.2c-0.2-0.8-0.4-1.6-0.7-2.3c-0.2-0.7-0.4-1.5-0.7-2.2c-0.1-0.4-0.3-0.8-0.6-1.1c-0.1-0.1-0.1-0.2-0.1-0.3
				c0-0.1,0-0.3,0-0.4c0-0.1,0-0.3,0.1-0.4c0.1-0.5,0.2-1,0.3-1.5c0.1-0.3,0.1-0.7,0.2-1c0-0.1,0-0.2,0.1-0.3c0.1,0,0.2,0,0.2,0
				c0.3,0,0.5-0.1,0.8-0.2c0.2-0.1,0.2-0.1,0.1-0.3c0-0.3-0.1-0.6-0.2-0.9c-0.1-0.4-0.2-0.8-0.3-1.2c-0.1-0.5-0.2-1-0.3-1.5
				c-0.1-0.2-0.1-0.5-0.2-0.7c0,0,0,0,0.1,0c0.3,0,0.5,0.1,0.8,0.1c0.2,0,0.4,0,0.5,0c0.3,0,0.6-0.1,0.9-0.2
				c0.3-0.1,0.6-0.4,0.7-0.7C18.2,21,18.2,20.8,18.1,20.6z M9.2,30.5c0,0.1-0.1,0.1-0.1,0.2c-0.2,0.2-0.4,0.4-0.5,0.7
				c0-0.7-0.1-1.3-0.2-2c0.1,0.1,0.2,0.1,0.2,0.2c0.2,0.1,0.3,0.2,0.5,0.4c0.1,0.1,0.2,0.3,0.2,0.4C9.3,30.4,9.2,30.5,9.2,30.5z
				 M11.2,16.6c0.1,0,0.1,0.1,0.2,0.1c0.1,0.1,0.1,0.1,0.1,0.2c-0.1,0.2-0.1,0.5-0.1,0.7c-0.1,0.3-0.2,0.6-0.3,0.9
				c0,0.1,0,0.1-0.1,0.2c-0.1-0.9-0.1-1.9,0.3-2.8c0,0,0-0.1,0.1-0.1c0.1,0,0.1,0.1,0.2,0.1c0.1,0,0.1,0.1,0.2,0.1
				C11.5,16.3,11.3,16.4,11.2,16.6z M12.9,15.8c-0.1,0.1-0.1,0.3-0.2,0.4c-0.2,0.8-0.5,1.5-0.7,2.3c0,0.1,0,0.1-0.1,0.2
				c0-0.1,0-0.2-0.1-0.3c-0.1-0.5-0.1-1-0.1-1.5c0-0.1,0-0.2,0.1-0.3c0.1,0,0.1-0.1,0.2-0.1c0.1-0.1,0.1-0.1,0-0.2
				c-0.1,0-0.2-0.1-0.2-0.1c0,0,0,0-0.1,0c-0.1-0.1-0.1-0.1,0-0.1c0,0,0,0,0,0c0.2-0.1,0.3-0.3,0.5-0.4c0.2-0.2,0.5-0.4,0.7-0.7
				c0,0,0.1-0.1,0.1-0.1c0.1-0.1,0.1-0.1,0.1,0.1C13.1,15.2,13,15.5,12.9,15.8z M14.3,18c-0.2,0.1-0.4,0.3-0.7,0.4c0,0-0.1,0-0.1,0
				c0-0.1,0-0.1,0-0.2c0.2-0.1,0.5-0.2,0.8-0.3c0,0,0.1,0,0.1,0c0,0,0,0,0,0C14.4,18,14.4,18,14.3,18z M15.2,21.7
				c-0.1,0-0.2-0.1-0.4-0.1c0.1-0.2,0.3-0.3,0.4-0.4C15.3,21.3,15.2,21.5,15.2,21.7z"/>
			<path class="st0" d="M4,20.1C4.1,20,4.1,20,4.2,20c0,0,0.1,0,0.1,0c0.1,0.2,0.2,0.4,0.4,0.6c0,0,0,0,0,0c0-0.1,0.1-0.1,0.1-0.2
				c0.2-0.3,0.4-0.7,0.6-1c0.2-0.4,0.2-0.9,0.1-1.3c0-0.1,0-0.2-0.1-0.3C5.7,17.7,5.8,17.9,6,18c0.3,0.4,0.7,0.7,1,1.1
				c0.2,0.2,0.4,0.4,0.6,0.7c0.1,0.1,0.2,0.2,0.3,0.3c0,0,0,0,0,0c0.2-0.4,0.3-0.7,0.3-1.1c0-0.3-0.1-0.7-0.2-0.9c0,0,0-0.1,0-0.1
				c0,0-0.1,0-0.1,0c-0.1,0-0.2-0.1-0.2-0.2c0-0.1,0-0.3,0-0.4c0-0.1,0-0.2,0.2-0.1c0.1,0,0.3,0.1,0.4,0c0.1,0,0.2-0.1,0.2-0.3
				c0,0,0-0.1,0-0.1c0.1-0.2,0.2-0.4,0.1-0.5c0.1-0.1,0.1-0.1,0.1-0.2c0,0-0.1-0.1-0.1-0.1c0,0,0,0,0,0c0.1-0.1,0.1-0.2,0.1-0.3
				c0-0.1-0.1-0.1-0.1-0.2c-0.1-0.1-0.1-0.2-0.1-0.3c0-0.1,0-0.1,0-0.2c0-0.2-0.1-0.4-0.3-0.5C8.1,14.3,8,14.2,8,14.1
				C8,14,8,14,8,13.9c-0.1-0.2-0.3-0.4-0.5-0.4c-0.3-0.1-0.6-0.1-0.9,0c-0.6,0.1-1,0.5-1.3,1.1c0,0,0,0.1,0,0.1c-0.1,0-0.1,0-0.2,0
				c-0.1,0-0.1,0-0.2,0c-0.2,0-0.3,0.1-0.4,0.3c0,0.1,0,0.1,0,0.2c0,0.1,0,0.2,0,0.3c0,0.1,0,0.2-0.1,0.2c0,0-0.1,0-0.1,0.1
				C4.1,15.8,4,15.9,4,16.1c0,0.1,0,0.2,0.1,0.2c0.1,0.2-0.1,0.3-0.3,0.3c-0.3-0.1-0.6-0.2-0.8-0.3c0,0-0.1,0-0.1-0.1
				c0-0.1,0.1-0.1,0.1-0.2c0.1-0.1,0.1-0.2,0.2-0.3c0.4-0.6,0.7-1.2,1.1-1.8c0-0.1,0.1-0.1,0.1-0.2c0-0.1,0-0.3,0-0.4
				c0-0.2,0.1-0.2,0.3-0.2c0.1,0.1,0.2,0.1,0.4,0.2c0.3,0.1,0.6,0.1,0.8-0.2c0,0,0.1-0.1,0.1-0.1c0,0,0,0,0.1,0.1
				c0.2,0.1,0.3,0.1,0.3-0.1c0-0.1,0-0.1,0-0.2c0-0.1,0-0.2,0-0.4c0-0.1,0-0.1,0.1-0.1c0,0,0,0,0,0c0.1,0,0.2,0,0.2-0.1
				c0-0.1,0-0.1,0-0.2c0,0-0.1-0.1-0.1-0.1c-0.1-0.1-0.2-0.1-0.2-0.1c-0.4-0.2-0.8-0.2-1.2-0.2c-0.2,0-0.3,0-0.4,0.1
				c-0.2,0.1-0.3,0.2-0.5,0.4c-0.1,0.1-0.2,0.2-0.3,0.3c-0.1,0.1-0.2,0.2-0.4,0.4c-0.5,0.5-0.9,1-1.3,1.5c-0.4,0.5-0.8,1-1.2,1.5
				c-0.2,0.2-0.3,0.4-0.6,0.5c-0.1,0.1-0.2,0.2-0.1,0.3c0.1,0.2,0.2,0.4,0.4,0.5c0.1,0.1,0.6,0.2,0.6,0.2c0,0,0.1,0.1,0.1,0.1
				c0.2,0.2,0.5,0.4,0.7,0.5C2.6,18,3,18.3,3.3,18.5c0,0,0.1,0.1,0.1,0.1c-0.1,0-0.1,0.1-0.2,0.1c-0.2,0.1-0.3,0-0.5-0.1
				c0,0.1,0,0.2,0.1,0.3c0.2,0.3,0.4,0.3,0.7,0.2c0,0,0.1-0.1,0.1-0.1c0,0.1,0,0.1-0.1,0.2c-0.1,0.1-0.2,0.2-0.3,0.3
				c-0.1,0-0.1,0.1-0.2,0.1c0,0,0,0,0,0c0,0,0.1,0.1,0.1,0.1c0.1,0,0.2,0,0.3,0c0.1,0,0.1-0.1,0.2,0c-0.1,0.1-0.1,0.1-0.2,0.2
				c0,0-0.1,0.1-0.1,0.1c-0.1,0.1,0,0.3,0.1,0.3C3.8,20.2,3.9,20.2,4,20.1z"/>
			<path class="st0" d="M6,22.1C6,22.1,6,22,5.9,22c-0.1,0-0.2-0.1-0.3-0.1c0-0.1,0.1-0.1,0.1-0.2c0-0.1,0.1-0.1,0-0.2
				c0-0.1-0.1,0-0.2,0c-0.2,0-0.3,0-0.5,0c0,0-0.1,0-0.1-0.1c0-0.1-0.1-0.3-0.1-0.4c0-0.1-0.1-0.1-0.1-0.1c0,0-0.1,0.1-0.1,0.1
				c-0.1,0.1-0.1,0.2,0,0.3c0.1,0.2,0,0.3-0.1,0.4c-0.1,0.1-0.1,0.2,0,0.3c0,0.1,0.1,0.2,0.1,0.2c0,0.1,0,0.2,0.1,0.3
				c0,0.1,0.1,0.1,0.1,0.2c0.1,0.1,0.1,0.3,0.3,0.3c0,0,0,0,0.1,0c0.1,0,0.2-0.1,0.3-0.2c0,0,0-0.1,0-0.1c0,0,0.1,0,0.1,0
				c0.2,0,0.3-0.1,0.2-0.3c0,0,0-0.1,0-0.1c0.1,0,0.1,0,0.2-0.1C5.9,22.2,6,22.2,6,22.1z"/>
		</g>
		<path class="st1" d="M8,17.9c0.2,0.1,0.4,0.3,0.5,0.5c0.2,0.2,0.4,0.4,0.6,0.7c0.3,0.4,0.4,0.8,0.4,1.3c0,0.2-0.1,0.3-0.1,0.5
			c0,0.1-0.1,0.2-0.1,0.3c-0.1,0.3-0.3,0.6-0.4,0.9c-0.2,0.5-0.4,1.1-0.4,1.7c0,0.2,0.1,0.5,0.1,0.7c0.1,0.4,0.3,0.7,0.6,1
			c0,0,0,0,0.1,0.1c0.1,0.1,0.1,0.2,0.2,0.3c0.2,0.2,0.4,0.5,0.6,0.7c0.2,0.2,0.4,0.4,0.6,0.6c0.1,0.1,0.3,0.2,0.4,0.4
			c0.1,0.1,0.1,0.1,0.1,0.2c0,0.1-0.1,0.1-0.2,0.1c0,0-0.1,0-0.1,0c0.1,0.2,0.1,0.3,0.2,0.5c0,0,0,0,0,0c-0.1-0.1-0.2-0.3-0.4-0.4
			c0,0-0.1-0.1-0.1-0.1c-0.1-0.1-0.1,0-0.2,0C10,28,9.6,28.1,9.1,28.2c-0.1,0-0.2,0-0.3,0.1c-0.2,0-0.3,0-0.5-0.2
			c0,0-0.1-0.1-0.1-0.1c0-0.1-0.1-0.1-0.1,0c-0.2,0.1-0.4,0.3-0.6,0.4c-0.3,0.2-0.6,0.3-0.9,0.4c-0.3,0.1-0.6,0.1-0.9,0
			c-0.1-0.1-0.3-0.1-0.4-0.1c0,0-0.1,0-0.1,0c-0.1-0.1-0.2,0-0.3,0c-0.1,0.1-0.2,0.1-0.3,0.2c-0.2,0.2-0.4,0.2-0.7,0.3
			c-0.2,0-0.4,0-0.5-0.1c-0.1-0.1-0.3-0.2-0.4-0.3c-0.1-0.1-0.1-0.1-0.2-0.2c-0.1-0.1-0.2-0.1-0.4-0.1c-0.1,0.1-0.3,0-0.4,0
			c-0.3-0.1-0.4-0.4-0.5-0.6c0-0.1-0.1-0.3-0.1-0.4c0-0.1-0.1-0.3-0.1-0.4c0-0.2,0.1-0.2,0.2-0.2c0.2,0,0.5-0.1,0.7-0.2
			c0.3-0.1,0.6-0.3,0.8-0.6c0.2-0.2,0.4-0.5,0.5-0.8C3.8,25,3.9,24.7,4,24.4c0.2-0.4,0.5-0.9,0.8-1.2C4.9,23.2,5,23.2,5,23.1
			c0,0,0,0,0.1,0c0.1,0,0.2-0.1,0.3-0.2c0,0,0-0.1,0-0.1c0,0,0.1,0,0.1,0c0.2,0,0.3-0.1,0.2-0.3c0,0,0-0.1,0-0.1
			c0.1,0,0.1,0,0.2-0.1c0.1,0,0.1-0.1,0.1-0.1C6,22.1,6,22,5.9,22c-0.1,0-0.2-0.1-0.3-0.1c0-0.1,0.1-0.1,0.1-0.2
			c0-0.1,0.1-0.1,0-0.2c0-0.1-0.1,0-0.2,0c-0.2,0-0.3,0-0.5,0c0,0-0.1,0-0.1-0.1c0-0.1-0.1-0.3-0.1-0.4c0-0.1-0.1-0.1-0.1-0.1
			c0-0.1-0.1-0.2-0.1-0.4c0,0,0,0,0,0c0-0.1,0.1-0.1,0.1-0.2c0.2-0.3,0.4-0.7,0.6-1c0.2-0.4,0.2-0.9,0.1-1.3c0-0.1,0-0.2-0.1-0.3
			C5.7,17.7,5.8,17.9,6,18c0.3,0.4,0.7,0.7,1,1.1c0.2,0.2,0.4,0.4,0.6,0.7c0.1,0.1,0.2,0.2,0.3,0.3c0,0,0,0,0,0
			c0.2-0.4,0.3-0.7,0.3-1.1C8.1,18.6,8.1,18.2,8,17.9c-0.1,0-0.1,0-0.1,0C7.9,17.9,8,17.9,8,17.9z"/>
		<path class="st1" d="M11.7,16c0.2-0.1,0.3-0.3,0.5-0.4c0.2-0.2,0.5-0.4,0.7-0.7c0,0,0.1-0.1,0.1-0.1c0.1-0.1,0.1-0.1,0.1,0.1
			c0,0.3-0.1,0.6-0.2,0.9c-0.1,0.1-0.1,0.3-0.2,0.4c-0.2,0.8-0.5,1.5-0.7,2.3c0,0.1,0,0.1-0.1,0.2c0-0.1,0-0.2-0.1-0.3
			c-0.1-0.5-0.1-1-0.1-1.5c0-0.1,0-0.2,0.1-0.3c0.1,0,0.1-0.1,0.2-0.1c0.1-0.1,0.1-0.1,0-0.2c-0.1,0-0.2-0.1-0.2-0.1c0,0,0,0-0.1,0
			C11.6,16.1,11.6,16.1,11.7,16C11.7,16,11.7,16,11.7,16z"/>
		<path class="st1" d="M11.2,16C11.2,16,11.2,16,11.2,16c0.1-0.1,0.2,0,0.2,0c0.1,0,0.1,0.1,0.2,0.1c-0.1,0.2-0.3,0.3-0.4,0.5
			c0.1,0,0.1,0.1,0.2,0.1c0.1,0.1,0.1,0.1,0.1,0.2c-0.1,0.2-0.1,0.5-0.1,0.7c-0.1,0.3-0.2,0.6-0.3,0.9c0,0.1,0,0.1-0.1,0.2
			C10.8,17.8,10.8,16.9,11.2,16z"/>
		<path class="st1" d="M14.5,17.9c-0.1,0-0.1,0.1-0.1,0.1c-0.2,0.1-0.4,0.3-0.7,0.4c0,0-0.1,0-0.1,0c0-0.1,0-0.1,0-0.2
			c0.2-0.1,0.5-0.2,0.8-0.3C14.4,17.9,14.4,17.9,14.5,17.9C14.5,17.9,14.5,17.9,14.5,17.9z"/>
		<path class="st1" d="M15.2,21.1c0,0.2,0,0.4-0.1,0.6c-0.1,0-0.2-0.1-0.4-0.1C14.9,21.4,15.1,21.2,15.2,21.1z"/>
	</g>
	<g>
		<g>
			<path class="st0" d="M24.4,33.1l0-4.7l0.3,0c0.3,1.2,0.7,2.1,1.1,2.8c0.8,1.3,1.9,1.9,3.1,1.9c0.9,0,1.6-0.3,2.2-0.9
				c0.6-0.6,0.9-1.3,0.9-2.2c0-0.4-0.1-0.8-0.2-1.2c-0.1-0.4-0.3-0.7-0.5-1c-0.2-0.3-0.5-0.6-0.9-0.9s-1-0.6-1.8-1
				c-0.7-0.4-1.3-0.7-1.7-0.9c-0.4-0.2-0.7-0.5-0.9-0.8c-0.7-0.7-1-1.6-1-2.6c0-0.6,0.1-1.2,0.4-1.8c0.3-0.6,0.6-1.1,1.1-1.5
				c0.8-0.7,1.8-1.1,2.9-1.1c0.4,0,0.7,0,1,0.1c0.3,0.1,0.7,0.2,1.2,0.4c0.4,0.2,0.6,0.2,0.8,0.3c0.1,0,0.3,0.1,0.4,0.1
				c0.3,0,0.4-0.2,0.5-0.6h0.3l0.1,4.5h-0.3c-0.2-0.7-0.4-1.3-0.5-1.7c-0.1-0.4-0.3-0.7-0.5-1.1c-0.4-0.6-0.8-1-1.2-1.3
				c-0.4-0.3-1-0.4-1.5-0.4c-0.8,0-1.5,0.3-2,0.9c-0.2,0.2-0.4,0.5-0.5,0.8c-0.1,0.3-0.2,0.6-0.2,1c0,1.3,0.8,2.3,2.4,3.1l1.6,0.8
				c1.2,0.6,2.1,1.2,2.7,1.9c0.6,0.8,0.9,1.7,0.9,2.8c0,0.7-0.1,1.4-0.4,2c-0.4,0.9-1,1.6-1.8,2c-0.8,0.5-1.7,0.7-2.8,0.7
				c-1,0-1.9-0.2-2.8-0.6c-0.5-0.2-0.8-0.3-0.8-0.4c-0.1,0-0.2,0-0.3,0c-0.4,0-0.6,0.2-0.8,0.5H24.4z"/>
			<path class="st0" d="M42.4,18c-0.5,0-1,0-1.5,0c-1.2,0.1-2,0.2-2.6,0.4c-0.6,0.2-1,0.6-1.4,1.2c-0.3,0.5-0.6,1.3-0.8,2.2l-0.3,0
				l0.2-4.2h15.4l0.2,4.2l-0.3,0c-0.2-1.1-0.5-1.9-1-2.4c-0.4-0.5-1.1-0.9-1.9-1.2c-0.7-0.2-1.9-0.3-3.6-0.3v11.6
				c0,0.8,0,1.3,0.1,1.7c0.1,0.4,0.2,0.7,0.5,0.9c0.2,0.2,0.5,0.4,0.7,0.5c0.3,0.1,0.6,0.2,1.1,0.2v0.3H40v-0.3
				c0.4,0,0.8-0.1,1.1-0.2c0.3-0.1,0.5-0.3,0.7-0.5c0.2-0.2,0.4-0.5,0.5-0.9c0.1-0.4,0.1-0.9,0.1-1.7V18z"/>
			<path class="st0" d="M64.7,17.7l0.2,3.8l-0.3,0c-0.1-0.6-0.3-1.2-0.5-1.6c-0.2-0.4-0.6-0.8-1-1.1c-0.4-0.3-0.8-0.5-1.3-0.6
				C61.5,18.1,60.8,18,60,18h-2.6v6.8h0.7c0.7,0,1.2,0,1.6-0.1c0.3-0.1,0.6-0.3,0.9-0.5c0.2-0.2,0.4-0.5,0.5-0.8
				c0.1-0.3,0.2-0.7,0.3-1.3l0.3,0l0,6.1h-0.3c-0.1-0.6-0.2-1.1-0.3-1.4c-0.1-0.4-0.3-0.7-0.6-0.9c-0.2-0.2-0.5-0.4-0.9-0.5
				c-0.4-0.1-0.8-0.2-1.4-0.2h-0.6v2.6c0,1,0,1.8,0.1,2.3c0.1,0.5,0.2,0.9,0.3,1.2c0.3,0.5,0.6,0.9,1.2,1.2c0.5,0.3,1.2,0.4,2.1,0.4
				c0.9,0,1.7-0.1,2.3-0.3c0.6-0.2,1.1-0.6,1.5-1.1c0.3-0.3,0.5-0.7,0.7-1.1c0.2-0.4,0.3-1,0.5-1.6l0.3,0l-0.1,4.5H52.5v-0.3
				c0.4,0,0.8-0.1,1.1-0.2c0.3-0.1,0.5-0.3,0.7-0.5c0.2-0.2,0.4-0.6,0.5-0.9c0.1-0.4,0.1-0.9,0.1-1.7v-8.4c0-0.8,0-1.3-0.1-1.7
				c-0.1-0.4-0.2-0.7-0.5-0.9c-0.2-0.2-0.4-0.4-0.7-0.5c-0.3-0.1-0.6-0.2-1.1-0.2v-0.3H64.7z"/>
			<path class="st0" d="M72.2,25.5v4.1c0,0.8,0,1.3,0.1,1.7c0.1,0.4,0.2,0.7,0.5,0.9c0.2,0.2,0.4,0.4,0.7,0.5
				c0.3,0.1,0.6,0.2,1.1,0.2v0.3h-7.3v-0.3c0.4,0,0.8-0.1,1.1-0.2c0.3-0.1,0.5-0.3,0.7-0.5c0.2-0.2,0.4-0.5,0.5-0.9
				c0.1-0.4,0.1-0.9,0.1-1.7v-8.4c0-0.7,0-1.2-0.1-1.5c-0.1-0.4-0.2-0.6-0.3-0.9c-0.2-0.3-0.4-0.5-0.8-0.7c-0.3-0.1-0.7-0.2-1.2-0.3
				h-0.1v-0.3h6.9c1.2,0,2.1,0.1,2.6,0.2c0.6,0.1,1.1,0.4,1.6,0.7c1.1,0.8,1.6,1.9,1.6,3.3c0,1.4-0.5,2.4-1.6,3
				c-0.6,0.3-1.3,0.5-2.1,0.6c-0.3,0-0.9,0-1.9,0H72.2z M72.2,25.2h1.1c0.8,0,1.3-0.1,1.7-0.2c0.4-0.1,0.8-0.3,1.1-0.6
				c0.7-0.7,1.1-1.6,1.1-2.7c0-0.6-0.1-1.2-0.3-1.7c-0.2-0.5-0.5-0.9-0.9-1.3c-0.5-0.4-1-0.6-1.6-0.7c-0.2,0-0.6,0-1.2,0h-1V25.2z"
				/>
			<path class="st0" d="M86,25.5v4.1c0,0.8,0,1.3,0.1,1.7c0.1,0.4,0.2,0.7,0.5,0.9c0.2,0.2,0.4,0.4,0.7,0.5c0.3,0.1,0.6,0.2,1.1,0.2
				v0.3h-7.3v-0.3c0.4,0,0.8-0.1,1.1-0.2c0.3-0.1,0.5-0.3,0.7-0.5c0.2-0.2,0.4-0.5,0.5-0.9c0.1-0.4,0.1-0.9,0.1-1.7v-8.4
				c0-0.7,0-1.2-0.1-1.5c-0.1-0.4-0.2-0.6-0.3-0.9c-0.2-0.3-0.4-0.5-0.8-0.7c-0.3-0.1-0.7-0.2-1.2-0.3h-0.1v-0.3H88
				c1.2,0,2.1,0.1,2.6,0.2c0.6,0.1,1.1,0.4,1.6,0.7c1.1,0.8,1.6,1.9,1.6,3.3c0,1.4-0.5,2.4-1.6,3c-0.6,0.3-1.3,0.5-2.1,0.6
				c-0.3,0-0.9,0-1.9,0H86z M86,25.2h1.1c0.8,0,1.3-0.1,1.7-0.2c0.4-0.1,0.8-0.3,1.1-0.6c0.7-0.7,1.1-1.6,1.1-2.7
				c0-0.6-0.1-1.2-0.3-1.7c-0.2-0.5-0.5-0.9-0.9-1.3c-0.5-0.4-1-0.6-1.6-0.7c-0.2,0-0.6,0-1.2,0h-1V25.2z"/>
			<path class="st0" d="M107.1,17.7l0.2,3.8l-0.3,0c-0.1-0.6-0.3-1.2-0.5-1.6c-0.2-0.4-0.6-0.8-1-1.1c-0.4-0.3-0.8-0.5-1.3-0.6
				c-0.5-0.1-1.1-0.2-1.9-0.2h-2.6v6.8h0.7c0.7,0,1.2,0,1.6-0.1c0.3-0.1,0.6-0.3,0.9-0.5c0.2-0.2,0.4-0.5,0.5-0.8
				c0.1-0.3,0.2-0.7,0.3-1.3l0.3,0l0,6.1h-0.3c-0.1-0.6-0.2-1.1-0.3-1.4c-0.1-0.4-0.3-0.7-0.6-0.9c-0.2-0.2-0.5-0.4-0.9-0.5
				c-0.4-0.1-0.8-0.2-1.4-0.2h-0.6v2.6c0,1,0,1.8,0.1,2.3c0.1,0.5,0.2,0.9,0.3,1.2c0.3,0.5,0.6,0.9,1.2,1.2c0.5,0.3,1.2,0.4,2.1,0.4
				c0.9,0,1.7-0.1,2.3-0.3c0.6-0.2,1.1-0.6,1.5-1.1c0.3-0.3,0.5-0.7,0.7-1.1c0.2-0.4,0.3-1,0.5-1.6l0.3,0l-0.1,4.5H94.9v-0.3
				c0.4,0,0.8-0.1,1.1-0.2c0.3-0.1,0.5-0.3,0.7-0.5c0.2-0.2,0.4-0.6,0.5-0.9c0.1-0.4,0.1-0.9,0.1-1.7v-8.4c0-0.8,0-1.3-0.1-1.7
				c-0.1-0.4-0.2-0.7-0.5-0.9c-0.2-0.2-0.4-0.4-0.7-0.5c-0.3-0.1-0.6-0.2-1.1-0.2v-0.3H107.1z"/>
			<path class="st0" d="M114.6,25.6v4c0,0.8,0,1.3,0.1,1.7c0.1,0.4,0.2,0.7,0.5,0.9c0.2,0.2,0.4,0.4,0.7,0.5
				c0.3,0.1,0.6,0.2,1.1,0.2v0.3h-7.3v-0.3c0.4,0,0.8-0.1,1.1-0.2c0.3-0.1,0.5-0.3,0.7-0.5c0.2-0.2,0.4-0.5,0.5-0.9
				c0.1-0.4,0.1-0.9,0.1-1.7v-8.4c0-0.8,0-1.4-0.1-1.7c-0.1-0.4-0.2-0.7-0.5-0.9c-0.2-0.2-0.4-0.4-0.7-0.5c-0.3-0.1-0.6-0.2-1.1-0.2
				v-0.3h5.5c0.9,0,1.5,0,1.8,0c1.2,0.1,2.1,0.2,2.8,0.5c0.8,0.3,1.3,0.8,1.7,1.4c0.4,0.6,0.6,1.3,0.6,2.1c0,1.2-0.4,2.1-1.3,2.8
				c-0.3,0.2-0.6,0.4-0.9,0.5c-0.3,0.1-0.8,0.3-1.3,0.4c0.5,0.2,0.8,0.4,1,0.6c0.2,0.2,0.3,0.4,0.5,0.6c0.1,0.2,0.4,0.7,0.6,1.3
				c0.7,1.4,1.2,2.4,1.5,3c0.3,0.6,0.6,1.1,0.9,1.4c0.2,0.2,0.4,0.4,0.6,0.5c0.2,0.1,0.4,0.2,0.7,0.2v0.3h-3.8
				c-0.2-0.4-0.3-0.7-0.4-0.8l-0.8-1.8c-0.5-1.1-1-2-1.4-2.9c-0.5-0.8-0.9-1.4-1.3-1.7c-0.2-0.2-0.4-0.3-0.7-0.3
				c-0.2-0.1-0.5-0.1-0.9-0.1H114.6z M114.6,25.3h0.4c0.9,0,1.6-0.1,2-0.2c0.4-0.1,0.8-0.3,1.1-0.7c0.8-0.8,1.2-1.7,1.2-2.8
				c0-0.6-0.1-1.2-0.3-1.7c-0.2-0.5-0.6-1-1-1.3c-0.3-0.3-0.7-0.4-1.1-0.5c-0.4-0.1-1.1-0.2-1.9-0.2h-0.5V25.3z"/>
			<path class="st0" d="M125.7,33.1l0-4.7l0.3,0c0.3,1.2,0.7,2.1,1.1,2.8c0.8,1.3,1.9,1.9,3.1,1.9c0.9,0,1.6-0.3,2.2-0.9
				c0.6-0.6,0.9-1.3,0.9-2.2c0-0.4-0.1-0.8-0.2-1.2c-0.1-0.4-0.3-0.7-0.5-1c-0.2-0.3-0.5-0.6-0.9-0.9c-0.4-0.3-1-0.6-1.8-1
				c-0.7-0.4-1.3-0.7-1.7-0.9c-0.4-0.2-0.7-0.5-0.9-0.8c-0.7-0.7-1-1.6-1-2.6c0-0.6,0.1-1.2,0.4-1.8c0.3-0.6,0.6-1.1,1.1-1.5
				c0.8-0.7,1.8-1.1,2.9-1.1c0.4,0,0.7,0,1,0.1c0.3,0.1,0.7,0.2,1.2,0.4c0.4,0.2,0.6,0.2,0.8,0.3c0.1,0,0.3,0.1,0.4,0.1
				c0.3,0,0.4-0.2,0.5-0.6h0.3l0.1,4.5h-0.3c-0.2-0.7-0.4-1.3-0.5-1.7c-0.1-0.4-0.3-0.7-0.5-1.1c-0.4-0.6-0.8-1-1.2-1.3
				s-1-0.4-1.5-0.4c-0.8,0-1.5,0.3-2,0.9c-0.2,0.2-0.4,0.5-0.5,0.8c-0.1,0.3-0.2,0.6-0.2,1c0,1.3,0.8,2.3,2.4,3.1l1.6,0.8
				c1.2,0.6,2.1,1.2,2.7,1.9c0.6,0.8,0.9,1.7,0.9,2.8c0,0.7-0.1,1.4-0.4,2c-0.4,0.9-1,1.6-1.8,2c-0.8,0.5-1.7,0.7-2.8,0.7
				c-1,0-1.9-0.2-2.8-0.6c-0.5-0.2-0.8-0.3-0.8-0.4c-0.1,0-0.2,0-0.3,0c-0.4,0-0.6,0.2-0.8,0.5H125.7z"/>
			<path class="st1" d="M142.2,33.2v-0.3c0.8,0,1.4-0.2,1.8-0.6c0.2-0.2,0.4-0.6,0.5-0.9c0.1-0.4,0.1-0.9,0.1-1.7v-8.4
				c0-0.8,0-1.4-0.1-1.8c-0.1-0.4-0.3-0.7-0.5-0.9c-0.2-0.2-0.4-0.3-0.7-0.4c-0.3-0.1-0.6-0.1-1-0.2v-0.3h7.3v0.3
				c-0.4,0-0.8,0.1-1,0.2s-0.5,0.2-0.7,0.4c-0.3,0.3-0.4,0.6-0.5,0.9c-0.1,0.4-0.1,1-0.1,1.8v6.6c0,1,0,1.8,0.1,2.3
				c0.1,0.5,0.2,0.9,0.3,1.2c0.3,0.5,0.7,0.9,1.2,1.2c0.5,0.3,1.2,0.4,2.1,0.4c0.9,0,1.7-0.1,2.3-0.4c0.6-0.2,1.1-0.6,1.5-1.1
				c0.3-0.3,0.5-0.7,0.7-1.2c0.2-0.4,0.3-1,0.5-1.7l0.3,0l-0.1,4.7H142.2z"/>
			<path class="st1" d="M164,17.7v0.3c-0.4,0-0.8,0.1-1.1,0.2c-0.3,0.1-0.5,0.3-0.7,0.5c-0.3,0.3-0.5,0.7-0.5,1.3
				c0,0.4-0.1,0.9-0.1,1.4v8.4c0,0.6,0,1.1,0.1,1.5c0.1,0.4,0.2,0.7,0.3,0.9c0.2,0.3,0.5,0.5,0.8,0.7c0.3,0.1,0.7,0.2,1.2,0.3v0.3
				h-7.3v-0.3c0.4,0,0.8-0.1,1.1-0.2s0.5-0.3,0.7-0.5c0.2-0.2,0.4-0.5,0.5-0.9c0.1-0.4,0.1-0.9,0.1-1.7v-8.4c0-0.8,0-1.4-0.1-1.7
				c-0.1-0.4-0.2-0.7-0.5-0.9c-0.2-0.2-0.4-0.4-0.7-0.5c-0.3-0.1-0.6-0.2-1.1-0.2v-0.3H164z"/>
			<path class="st1" d="M170.3,25.1v4.5c0,0.8,0,1.3,0.1,1.7c0.1,0.4,0.2,0.7,0.5,0.9c0.2,0.2,0.4,0.4,0.7,0.5
				c0.3,0.1,0.6,0.2,1.1,0.2v0.3h-7.3v-0.3c0.4,0,0.7-0.1,1-0.2c0.3-0.1,0.6-0.3,0.8-0.5c0.2-0.2,0.4-0.6,0.5-1
				c0.1-0.4,0.1-1,0.1-1.7v-8.4c0-0.5,0-1-0.1-1.5c-0.1-0.7-0.4-1.2-1-1.5c-0.3-0.2-0.8-0.3-1.3-0.3v-0.3h11.9l0.3,3.7l-0.3,0.1
				c-0.2-0.6-0.4-1-0.5-1.3c-0.4-0.7-0.9-1.2-1.5-1.5c-0.4-0.2-0.8-0.4-1.3-0.4c-0.5-0.1-1.2-0.1-2-0.1h-1.8v6.7h0.5
				c1.3,0,2.3-0.3,2.9-0.9c0.3-0.3,0.5-0.6,0.6-0.9c0.1-0.4,0.2-0.8,0.3-1.4l0.3,0l-0.1,6.9h-0.3c-0.1-0.8-0.2-1.4-0.4-1.8
				c-0.2-0.4-0.5-0.8-0.9-1c-0.3-0.2-0.7-0.3-1.1-0.4C171.6,25.1,171,25.1,170.3,25.1z"/>
			<path class="st1" d="M190.6,17.7l0.2,3.8l-0.3,0c-0.1-0.6-0.3-1.2-0.5-1.6c-0.2-0.4-0.6-0.8-1-1.1c-0.4-0.3-0.8-0.5-1.3-0.6
				c-0.5-0.1-1.1-0.2-1.9-0.2h-2.6v6.8h0.7c0.7,0,1.2,0,1.6-0.1c0.3-0.1,0.6-0.3,0.9-0.5c0.2-0.2,0.4-0.5,0.5-0.8
				c0.1-0.3,0.2-0.7,0.3-1.3l0.3,0l0,6.1h-0.3c-0.1-0.6-0.2-1.1-0.3-1.4c-0.1-0.4-0.3-0.7-0.6-0.9c-0.2-0.2-0.5-0.4-0.9-0.5
				c-0.4-0.1-0.8-0.2-1.4-0.2h-0.6v2.6c0,1,0,1.8,0.1,2.3c0.1,0.5,0.2,0.9,0.3,1.2c0.3,0.5,0.6,0.9,1.2,1.2c0.5,0.3,1.2,0.4,2.1,0.4
				c0.9,0,1.7-0.1,2.3-0.3c0.6-0.2,1.1-0.6,1.5-1.1c0.3-0.3,0.5-0.7,0.7-1.1c0.2-0.4,0.3-1,0.5-1.6l0.3,0l-0.1,4.5h-13.6v-0.3
				c0.4,0,0.8-0.1,1.1-0.2c0.3-0.1,0.5-0.3,0.7-0.5c0.2-0.2,0.4-0.6,0.5-0.9c0.1-0.4,0.1-0.9,0.1-1.7v-8.4c0-0.8,0-1.3-0.1-1.7
				c-0.1-0.4-0.2-0.7-0.5-0.9c-0.2-0.2-0.4-0.4-0.7-0.5c-0.3-0.1-0.6-0.2-1.1-0.2v-0.3H190.6z"/>
		</g>
		<g>
			<path class="st0" d="M198.3,33.1c0-0.1,0-0.2,0.1-0.3s0.2-0.1,0.3-0.1c0.1,0,0.2,0,0.3,0.1s0.1,0.2,0.1,0.3c0,0.1,0,0.2-0.1,0.3
				s-0.2,0.1-0.3,0.1c-0.1,0-0.2,0-0.3-0.1S198.3,33.2,198.3,33.1z"/>
			<path class="st0" d="M194.8,28.3l1.4,0v0.1c-0.1,0-0.1,0-0.1,0.1c-0.2,0.1-0.3,0.1-0.4,0.2c-0.2,0.1-0.3,0.2-0.5,0.3
				c-0.1,0.1-0.2,0.2-0.2,0.4c0,0.1-0.1,0.3-0.1,0.4c0,0.2,0.1,0.4,0.2,0.6c0.1,0.1,0.2,0.3,0.4,0.4c0.2,0.1,0.4,0.2,0.6,0.3
				c0.3,0.1,0.6,0.2,1,0.2c0.3,0,0.6,0,0.9-0.1c0.3-0.1,0.5-0.2,0.7-0.4c0.3-0.3,0.5-0.7,0.5-1.1c0-0.2,0-0.4-0.1-0.6
				c-0.1-0.2-0.2-0.3-0.3-0.4c-0.2-0.1-0.4-0.2-0.7-0.3l0-0.1c0.3,0,0.6,0.1,0.8,0.3c0.2,0.1,0.3,0.3,0.4,0.5
				c0.1,0.2,0.1,0.5,0.1,0.8c0,0.3,0,0.6-0.1,0.8c-0.1,0.4-0.4,0.7-0.7,1c-0.4,0.2-0.8,0.3-1.3,0.3c-0.4,0-0.7-0.1-1-0.2
				c-0.3-0.1-0.6-0.3-0.8-0.6c-0.1-0.2-0.3-0.4-0.4-0.7s-0.1-0.5-0.1-0.8c0-0.2,0-0.5,0.1-0.8l0.1-0.3c0,0,0-0.1,0-0.1
				c0-0.1,0-0.1-0.1-0.1C194.9,28.4,194.8,28.4,194.8,28.3L194.8,28.3z"/>
			<path class="st0" d="M197,27.7c-0.3,0-0.7-0.1-1-0.2c-0.3-0.1-0.6-0.4-0.8-0.6c-0.2-0.2-0.3-0.4-0.4-0.7
				c-0.1-0.2-0.1-0.5-0.1-0.7c0-0.3,0.1-0.6,0.2-0.9c0.1-0.3,0.3-0.6,0.6-0.8c0.4-0.4,0.9-0.5,1.4-0.5c0.3,0,0.5,0,0.8,0.1
				s0.5,0.2,0.7,0.4c0.3,0.2,0.4,0.5,0.6,0.8c0.1,0.3,0.2,0.6,0.2,1c0,0.3-0.1,0.6-0.2,0.9c-0.1,0.3-0.3,0.6-0.6,0.8
				c-0.2,0.2-0.4,0.3-0.7,0.4C197.5,27.6,197.2,27.7,197,27.7z M197,26.9c0.6,0,1.1-0.2,1.5-0.5c0.2-0.1,0.3-0.3,0.4-0.5
				c0.1-0.2,0.1-0.4,0.1-0.6c0-0.2,0-0.4-0.1-0.6c-0.1-0.2-0.2-0.3-0.4-0.5c-0.4-0.3-0.9-0.5-1.5-0.5c-0.3,0-0.6,0-0.9,0.1
				c-0.3,0.1-0.5,0.2-0.8,0.4c-0.2,0.1-0.3,0.3-0.4,0.4c-0.1,0.2-0.1,0.4-0.1,0.6c0,0.2,0,0.4,0.1,0.6s0.2,0.3,0.4,0.4
				c0.2,0.2,0.5,0.3,0.7,0.4C196.3,26.9,196.7,26.9,197,26.9z"/>
			<path class="st0" d="M194.9,17.3c0,0.1,0,0.2,0,0.3c0,0.1,0.1,0.1,0.1,0.2c0,0,0.1,0.1,0.1,0.1s0.1,0,0.2,0c0.1,0,0.2,0,0.4,0
				h2.3c0.2,0,0.4,0,0.5,0c0.1,0,0.2-0.1,0.2-0.1c0.1-0.1,0.2-0.3,0.2-0.5h0.1v2H199c0-0.1,0-0.2-0.1-0.3c0-0.1-0.1-0.1-0.1-0.2
				c-0.1-0.1-0.1-0.1-0.3-0.1s-0.3,0-0.5,0h-2.8l3.7,1.6v0.1l-3.7,1.6h2.7c0.2,0,0.4,0,0.5,0s0.2-0.1,0.2-0.1
				c0.1-0.1,0.1-0.1,0.1-0.2c0-0.1,0-0.2,0-0.3h0.1v1.4H199c0-0.1,0-0.2,0-0.3c0-0.1-0.1-0.1-0.1-0.2c-0.1-0.1-0.1-0.1-0.3-0.1
				c-0.1,0-0.3,0-0.5,0h-2.3c-0.1,0-0.2,0-0.3,0c-0.2,0-0.3,0-0.3,0.1c-0.1,0.1-0.2,0.1-0.2,0.2c0,0.1-0.1,0.2-0.1,0.4h-0.1v-1.3
				l3.3-1.3l-3.3-1.4L194.9,17.3L194.9,17.3z"/>
		</g>
	</g>
</g>
</svg>
