<svg width="512" height="512" xmlns="http://www.w3.org/2000/svg">
    <!-- Background with gradient -->
    <defs>
      <linearGradient id="grad" x1="0%" y1="0%" x2="100%" y2="100%">
        <stop offset="0%" style="stop-color:#2563eb;stop-opacity:1" />
        <stop offset="100%" style="stop-color:#1e40af;stop-opacity:1" />
      </linearGradient>
    </defs>
    <rect width="512" height="512" fill="url(#grad)" rx="76.8"/>

    <!-- Decorative circles -->
    <circle cx="128" cy="128" r="40.96" fill="#3b82f6" opacity="0.3"/>
    <circle cx="384" cy="384" r="40.96" fill="#3b82f6" opacity="0.3"/>

    <!-- Calendar icon -->
    <rect x="138.24" y="158.72" width="230.4" height="230.4" rx="15.36" fill="white"/>
    <rect x="138.24" y="158.72" width="230.4" height="61.44" rx="15.36" fill="#1e40af"/>
    <rect x="168.96" y="143.36" width="20.48" height="40.96" rx="10.24" fill="#1e40af"/>
    <rect x="322.56" y="143.36" width="20.48" height="40.96" rx="10.24" fill="#1e40af"/>

    <!-- Calendar dots -->
    <circle cx="179.2" cy="250.88" r="7.68" fill="#2563eb"/>
    <circle cx="220.16" cy="250.88" r="7.68" fill="#2563eb"/>
    <circle cx="261.12" cy="250.88" r="7.68" fill="#2563eb"/>
    <circle cx="302.08" cy="250.88" r="7.68" fill="#2563eb"/>
    <circle cx="343.04" cy="250.88" r="7.68" fill="#2563eb"/>

    <circle cx="179.2" cy="291.84" r="7.68" fill="#2563eb"/>
    <circle cx="220.16" cy="291.84" r="7.68" fill="#2563eb"/>
    <circle cx="261.12" cy="291.84" r="10.24" fill="#ef4444"/>
    <circle cx="302.08" cy="291.84" r="7.68" fill="#2563eb"/>
    <circle cx="343.04" cy="291.84" r="7.68" fill="#2563eb"/>

    <circle cx="179.2" cy="332.8" r="7.68" fill="#2563eb"/>
    <circle cx="220.16" cy="332.8" r="7.68" fill="#2563eb"/>
    <circle cx="261.12" cy="332.8" r="7.68" fill="#2563eb"/>
    <circle cx="302.08" cy="332.8" r="7.68" fill="#2563eb"/>

    <!-- Ticket icon -->
    <g transform="translate(348.16, 302.08)">
      <path d="M 0 0 L 81.92 0 L 81.92 15.36 Q 71.68 15.36 71.68 25.6 Q 71.68 35.84 81.92 35.84 L 81.92 51.2 L 0 51.2 L 0 35.84 Q 10.24 35.84 10.24 25.6 Q 10.24 15.36 0 15.36 Z"
            fill="#fbbf24" stroke="#f59e0b" stroke-width="2.048"/>
      <line x1="15.36" y1="15.36" x2="66.56" y2="15.36" stroke="#f59e0b" stroke-width="2.048"/>
      <line x1="15.36" y1="25.6" x2="66.56" y2="25.6" stroke="#f59e0b" stroke-width="2.048"/>
      <line x1="15.36" y1="35.84" x2="66.56" y2="35.84" stroke="#f59e0b" stroke-width="2.048"/>
    </g>
  </svg>