<svg width="512" height="512" viewBox="0 0 512 512" xmlns="http://www.w3.org/2000/svg">
  <!-- Background -->
  <rect width="512" height="512" fill="#2563eb" rx="80"/>

  <!-- Decorative circles -->
  <circle cx="128" cy="128" r="40" fill="#3b82f6" opacity="0.3"/>
  <circle cx="384" cy="384" r="40" fill="#3b82f6" opacity="0.3"/>

  <!-- Calendar icon base -->
  <rect x="140" y="160" width="232" height="232" rx="16" fill="white"/>

  <!-- Calendar header -->
  <rect x="140" y="160" width="232" height="60" rx="16" fill="#1e40af"/>
  <rect x="140" y="204" width="232" height="16" fill="#1e40af"/>

  <!-- Calendar rings -->
  <rect x="170" y="145" width="20" height="40" rx="10" fill="#1e40af"/>
  <rect x="322" y="145" width="20" height="40" rx="10" fill="#1e40af"/>

  <!-- Calendar dots (dates) -->
  <circle cx="180" cy="250" r="8" fill="#2563eb"/>
  <circle cx="220" cy="250" r="8" fill="#2563eb"/>
  <circle cx="260" cy="250" r="8" fill="#2563eb"/>
  <circle cx="300" cy="250" r="8" fill="#2563eb"/>
  <circle cx="340" cy="250" r="8" fill="#2563eb"/>

  <circle cx="180" cy="290" r="8" fill="#2563eb"/>
  <circle cx="220" cy="290" r="8" fill="#2563eb"/>
  <circle cx="260" cy="290" r="8" fill="#2563eb"/>
  <circle cx="300" cy="290" r="8" fill="#2563eb"/>
  <circle cx="340" cy="290" r="8" fill="#2563eb"/>

  <circle cx="180" cy="330" r="8" fill="#2563eb"/>
  <circle cx="220" cy="330" r="8" fill="#2563eb"/>
  <circle cx="260" cy="330" r="12" fill="#ef4444"/>
  <circle cx="300" cy="330" r="8" fill="#2563eb"/>
  <circle cx="340" cy="330" r="8" fill="#2563eb"/>

  <!-- Ticket icon overlay -->
  <g transform="translate(350, 300)">
    <path d="M 0 0 L 80 0 L 80 15 Q 70 15 70 25 Q 70 35 80 35 L 80 50 L 0 50 L 0 35 Q 10 35 10 25 Q 10 15 0 15 Z"
          fill="#fbbf24" stroke="#f59e0b" stroke-width="2"/>
    <line x1="15" y1="15" x2="65" y2="15" stroke="#f59e0b" stroke-width="2"/>
    <line x1="15" y1="25" x2="65" y2="25" stroke="#f59e0b" stroke-width="2"/>
    <line x1="15" y1="35" x2="65" y2="35" stroke="#f59e0b" stroke-width="2"/>
  </g>
</svg>
