<svg width="192" height="192" xmlns="http://www.w3.org/2000/svg">
    <!-- Background with gradient -->
    <defs>
      <linearGradient id="grad" x1="0%" y1="0%" x2="100%" y2="100%">
        <stop offset="0%" style="stop-color:#2563eb;stop-opacity:1" />
        <stop offset="100%" style="stop-color:#1e40af;stop-opacity:1" />
      </linearGradient>
    </defs>
    <rect width="192" height="192" fill="url(#grad)" rx="28.799999999999997"/>

    <!-- Decorative circles -->
    <circle cx="48" cy="48" r="15.36" fill="#3b82f6" opacity="0.3"/>
    <circle cx="144" cy="144" r="15.36" fill="#3b82f6" opacity="0.3"/>

    <!-- Calendar icon -->
    <rect x="51.84" y="59.519999999999996" width="86.4" height="86.4" rx="5.76" fill="white"/>
    <rect x="51.84" y="59.519999999999996" width="86.4" height="23.04" rx="5.76" fill="#1e40af"/>
    <rect x="63.36" y="53.760000000000005" width="7.68" height="15.36" rx="3.84" fill="#1e40af"/>
    <rect x="120.96000000000001" y="53.760000000000005" width="7.68" height="15.36" rx="3.84" fill="#1e40af"/>

    <!-- Calendar dots -->
    <circle cx="67.19999999999999" cy="94.08" r="2.88" fill="#2563eb"/>
    <circle cx="82.56" cy="94.08" r="2.88" fill="#2563eb"/>
    <circle cx="97.92" cy="94.08" r="2.88" fill="#2563eb"/>
    <circle cx="113.28" cy="94.08" r="2.88" fill="#2563eb"/>
    <circle cx="128.64000000000001" cy="94.08" r="2.88" fill="#2563eb"/>

    <circle cx="67.19999999999999" cy="109.44" r="2.88" fill="#2563eb"/>
    <circle cx="82.56" cy="109.44" r="2.88" fill="#2563eb"/>
    <circle cx="97.92" cy="109.44" r="3.84" fill="#ef4444"/>
    <circle cx="113.28" cy="109.44" r="2.88" fill="#2563eb"/>
    <circle cx="128.64000000000001" cy="109.44" r="2.88" fill="#2563eb"/>

    <circle cx="67.19999999999999" cy="124.80000000000001" r="2.88" fill="#2563eb"/>
    <circle cx="82.56" cy="124.80000000000001" r="2.88" fill="#2563eb"/>
    <circle cx="97.92" cy="124.80000000000001" r="2.88" fill="#2563eb"/>
    <circle cx="113.28" cy="124.80000000000001" r="2.88" fill="#2563eb"/>

    <!-- Ticket icon -->
    <g transform="translate(130.56, 113.28)">
      <path d="M 0 0 L 30.72 0 L 30.72 5.76 Q 26.880000000000003 5.76 26.880000000000003 9.600000000000001 Q 26.880000000000003 13.440000000000001 30.72 13.440000000000001 L 30.72 19.200000000000003 L 0 19.200000000000003 L 0 13.440000000000001 Q 3.84 13.440000000000001 3.84 9.600000000000001 Q 3.84 5.76 0 5.76 Z"
            fill="#fbbf24" stroke="#f59e0b" stroke-width="0.768"/>
      <line x1="5.76" y1="5.76" x2="24.96" y2="5.76" stroke="#f59e0b" stroke-width="0.768"/>
      <line x1="5.76" y1="9.600000000000001" x2="24.96" y2="9.600000000000001" stroke="#f59e0b" stroke-width="0.768"/>
      <line x1="5.76" y1="13.440000000000001" x2="24.96" y2="13.440000000000001" stroke="#f59e0b" stroke-width="0.768"/>
    </g>
  </svg>